<?xml version="1.0"?>
<svg xmlns="http://www.w3.org/2000/svg" xmlns:xlink="http://www.w3.org/1999/xlink" xmlns:svgjs="http://svgjs.com/svgjs" version="1.1" width="512" height="512" x="0" y="0" viewBox="0 0 512 512" style="enable-background:new 0 0 512 512" xml:space="preserve" class=""><g>
<g xmlns="http://www.w3.org/2000/svg">
	<g>
		<path d="M450,0c-2.04,0-4.055,0.105-6.045,0.299C443.188,0.111,442.392,0,441.567,0H140c-35.29,0-64,28.71-64,64v40    c0,5.523,4.478,10,10,10c5.522,0,10-4.477,10-10V64c0-24.262,19.738-44,44-44h264.445C394.245,31.054,388,45.809,388,62    c0,0.338,0.018,0.671,0.051,1c-0.033,0.329-0.051,0.662-0.051,1v68.333c0,5.523,4.478,10,10,10c5.522,0,10-4.477,10-10V72h94    c5.522,0,10-4.477,10-10C512,27.813,484.187,0,450,0z M409.213,52c4.499-18.345,21.074-32,40.788-32s36.288,13.655,40.787,32    H409.213z" fill="#ffffff" data-original="#000000" style="" class=""/>
	</g>
</g>
<g xmlns="http://www.w3.org/2000/svg">
	<g>
		<path d="M337.865,53.99h-63.542c-5.522,0-10,4.477-10,10s4.478,10,10,10h40.671L201.563,187.421l-66.492-66.492    c-3.906-3.905-10.236-3.904-14.143,0l-89.75,89.751c-3.905,3.905-3.905,10.237,0,14.143c1.953,1.952,4.511,2.928,7.071,2.928    s5.118-0.976,7.071-2.929l82.68-82.68l66.492,66.492c3.906,3.905,10.236,3.905,14.143,0l119.23-119.23v38.128    c0,5.523,4.478,10,10,10c5.522,0,10-4.477,10-10V63.99C347.865,58.467,343.387,53.99,337.865,53.99z" fill="#ffffff" data-original="#000000" style="" class=""/>
	</g>
</g>
<g xmlns="http://www.w3.org/2000/svg">
	<g>
		<path d="M17.069,238.93C15.21,237.07,12.63,236,10,236s-5.21,1.07-7.07,2.93C1.069,240.79,0,243.37,0,246s1.069,5.21,2.93,7.07    S7.37,256,10,256s5.21-1.07,7.069-2.93C18.93,251.21,20,248.63,20,246S18.93,240.79,17.069,238.93z" fill="#ffffff" data-original="#000000" style="" class=""/>
	</g>
</g>
<g xmlns="http://www.w3.org/2000/svg">
	<g>
		<path d="M456.01,314.018c0.001-5.523-4.477-10-9.999-10h-76v-76c0-5.523-4.478-10-10-10c-52.935,0-96,43.065-96,96    s43.065,96,96,96c9.733,0,19.13-1.461,27.989-4.166V450c0,23.159-18.841,42-42,42s-42-18.841-42-42    c0-0.311-0.019-0.618-0.046-0.921c0.038-0.355,0.06-0.714,0.06-1.079c0-5.523-4.478-10-10-10H96V224.029c0-5.523-4.478-10-10-10    c-5.522,0-10,4.477-10,10V438H32c-5.522,0-10,4.477-10,10c0,35.29,28.71,64,64,64h260c34.187,0,62-27.813,62-62v-52.017    c0-0.277-0.019-0.549-0.042-0.821C436.659,380.546,456.01,349.5,456.01,314.018z M86,492c-20.823,0-38.314-14.54-42.854-34    h241.387c1.687,13.027,7.42,24.798,15.911,34H86z M360.011,390.018c-41.906,0-76-34.093-76-76c0-38.518,28.802-70.435,66-75.345    v75.345c0,5.523,4.478,10,10,10h75.345C430.445,361.216,398.528,390.018,360.011,390.018z" fill="#ffffff" data-original="#000000" style="" class=""/>
	</g>
</g>
<g xmlns="http://www.w3.org/2000/svg">
	<g>
		<path d="M394,162.029c-5.522,0-10,4.477-10,10v108c0,5.523,4.478,10,10,10h108c5.522,0,10-4.477,10-10    C512,214.963,459.065,162.029,394,162.029z M404,270.029v-87.494c46.072,4.689,82.805,41.421,87.494,87.494H404z" fill="#ffffff" data-original="#000000" style="" class=""/>
	</g>
</g>
<g xmlns="http://www.w3.org/2000/svg">
	<g>
		<path d="M211,324h-86c-5.522,0-10,4.477-10,10s4.478,10,10,10h86c5.522,0,10-4.477,10-10S216.522,324,211,324z" fill="#ffffff" data-original="#000000" style="" class=""/>
	</g>
</g>
<g xmlns="http://www.w3.org/2000/svg">
	<g>
		<path d="M257.569,374.93c-1.859-1.86-4.439-2.93-7.069-2.93s-5.21,1.07-7.07,2.93s-2.93,4.44-2.93,7.07s1.069,5.21,2.93,7.07    c1.861,1.86,4.44,2.93,7.07,2.93s5.21-1.07,7.069-2.93c1.86-1.86,2.931-4.44,2.931-7.07S259.43,376.79,257.569,374.93z" fill="#ffffff" data-original="#000000" style="" class=""/>
	</g>
</g>
<g xmlns="http://www.w3.org/2000/svg">
	<g>
		<path d="M211,372h-86c-5.522,0-10,4.477-10,10s4.478,10,10,10h86c5.522,0,10-4.477,10-10S216.522,372,211,372z" fill="#ffffff" data-original="#000000" style="" class=""/>
	</g>
</g>
<g xmlns="http://www.w3.org/2000/svg">
	<g>
		<path d="M159.419,276H125c-5.522,0-10,4.477-10,10s4.478,10,10,10h34.419c5.522,0,10-4.477,10-10S164.941,276,159.419,276z" fill="#ffffff" data-original="#000000" style="" class=""/>
	</g>
</g>
<g xmlns="http://www.w3.org/2000/svg">
</g>
<g xmlns="http://www.w3.org/2000/svg">
</g>
<g xmlns="http://www.w3.org/2000/svg">
</g>
<g xmlns="http://www.w3.org/2000/svg">
</g>
<g xmlns="http://www.w3.org/2000/svg">
</g>
<g xmlns="http://www.w3.org/2000/svg">
</g>
<g xmlns="http://www.w3.org/2000/svg">
</g>
<g xmlns="http://www.w3.org/2000/svg">
</g>
<g xmlns="http://www.w3.org/2000/svg">
</g>
<g xmlns="http://www.w3.org/2000/svg">
</g>
<g xmlns="http://www.w3.org/2000/svg">
</g>
<g xmlns="http://www.w3.org/2000/svg">
</g>
<g xmlns="http://www.w3.org/2000/svg">
</g>
<g xmlns="http://www.w3.org/2000/svg">
</g>
<g xmlns="http://www.w3.org/2000/svg">
</g>
</g></svg>
