<?xml version="1.0"?>
<svg xmlns="http://www.w3.org/2000/svg" xmlns:xlink="http://www.w3.org/1999/xlink" xmlns:svgjs="http://svgjs.com/svgjs" version="1.1" width="512" height="512" x="0" y="0" viewBox="0 0 64 64" style="enable-background:new 0 0 512 512" xml:space="preserve"><g><g xmlns="http://www.w3.org/2000/svg"><path d="m42.929 49h14.142v2h-14.142z" transform="matrix(.142 -.99 .99 .142 -6.577 92.415)" fill="#ffffff" data-original="#000000" style=""/><path d="m52.293 47.707 2.293 2.293-2.293 2.293 1.414 1.414 3.707-3.707-3.707-3.707z" fill="#ffffff" data-original="#000000" style=""/><path d="m46.293 46.293-3.707 3.707 3.707 3.707 1.414-1.414-2.293-2.293 2.293-2.293z" fill="#ffffff" data-original="#000000" style=""/><path d="m60.884 46.581c-.302-.099-.538-.316-.646-.594-.051-.132-.104-.263-.161-.393-.118-.273-.104-.591.038-.873.601-1.188.372-2.62-.57-3.561l-.545-.545v-36.615c0-1.654-1.346-3-3-3h-52c-1.654 0-3 1.346-3 3v42c0 1.654 1.346 3 3 3h33.042c-.027.164-.042.332-.042.502v.996c0 1.331.85 2.505 2.116 2.921.302.099.538.316.646.594.051.132.104.263.161.393.118.273.104.591-.038.873-.601 1.188-.372 2.62.57 3.561l.704.705c.941.942 2.372 1.17 3.561.57.282-.143.6-.157.874-.038.129.056.26.11.39.161.28.108.497.345.596.648.417 1.264 1.591 2.114 2.922 2.114h.996c1.331 0 2.505-.85 2.921-2.116.099-.302.316-.538.594-.646.132-.051.263-.104.393-.161.272-.119.591-.105.873.038 1.188.6 2.62.372 3.561-.57l.705-.704c.942-.941 1.171-2.373.57-3.561-.143-.282-.156-.6-.038-.874.056-.129.11-.26.161-.39.108-.28.345-.497.648-.596 1.264-.417 2.114-1.591 2.114-2.922v-.996c0-1.331-.85-2.505-2.116-2.921zm-57.884-42.581c0-.551.449-1 1-1h52c.551 0 1 .449 1 1v9h-54zm1 43c-.551 0-1-.449-1-1v-31h54v24.579c-.578-.063-1.174.03-1.721.306-.281.143-.599.156-.874.038-.128-.056-.259-.109-.39-.161-.279-.108-.497-.345-.596-.648-.416-1.264-1.59-2.114-2.921-2.114h-.996c-1.331 0-2.505.85-2.921 2.116-.099.302-.316.538-.596.646-.131.051-.261.104-.391.161-.273.118-.591.105-.873-.038-1.189-.601-2.62-.372-3.561.57l-.704.704c-.942.941-1.171 2.373-.57 3.561.143.282.156.6.038.874-.056.129-.11.26-.161.39-.108.28-.345.497-.648.596-.3.099-.575.243-.822.419h-34.293zm57 3.498c0 .465-.297.875-.74 1.021-.872.286-1.56.932-1.886 1.772-.042.107-.086.214-.131.318-.356.82-.325 1.757.087 2.572.21.415.13.915-.199 1.244l-.705.705c-.33.33-.83.409-1.244.199-.814-.412-1.753-.442-2.571-.087-.105.045-.212.089-.321.132-.839.326-1.484 1.014-1.771 1.887-.145.442-.556.739-1.021.739h-.996c-.465 0-.875-.297-1.021-.74-.286-.872-.932-1.56-1.772-1.886-.107-.042-.214-.086-.318-.131-.378-.165-.781-.247-1.186-.247-.473 0-.947.112-1.386.333-.416.21-.915.13-1.244-.199l-.705-.705c-.329-.329-.409-.829-.199-1.244.412-.815.443-1.752.087-2.571-.045-.105-.089-.212-.132-.321-.326-.839-1.014-1.484-1.887-1.771-.442-.144-.739-.555-.739-1.02v-.996c0-.465.297-.875.739-1.021.873-.286 1.561-.932 1.887-1.772.042-.107.086-.214.131-.318.356-.82.325-1.757-.087-2.572-.21-.415-.13-.916.199-1.245l.704-.704c.329-.33.829-.41 1.245-.199.815.412 1.753.443 2.571.087.106-.046.213-.09.32-.131.839-.327 1.485-1.015 1.772-1.887.145-.443.556-.74 1.021-.74h.996c.465 0 .875.297 1.021.74.287.872.932 1.56 1.771 1.886.107.042.214.086.319.131.818.356 1.757.324 2.572-.087.414-.211.915-.13 1.245.199l.704.704c.329.329.409.83.199 1.245-.412.815-.443 1.752-.087 2.571.045.105.089.212.132.321.326.839 1.014 1.484 1.887 1.771.442.145.739.556.739 1.021z" fill="#ffffff" data-original="#000000" style=""/><path d="m5 11h6v-6h-6zm2-4h2v2h-2z" fill="#ffffff" data-original="#000000" style=""/><path d="m13 11h6v-6h-6zm2-4h2v2h-2z" fill="#ffffff" data-original="#000000" style=""/><path d="m21 11h6v-6h-6zm2-4h2v2h-2z" fill="#ffffff" data-original="#000000" style=""/><path d="m36 17h-28c-1.654 0-3 1.346-3 3v16c0 1.654 1.346 3 3 3h14.697l5.361 3.574c.419.279.905.426 1.407.426 1.398 0 2.535-1.137 2.535-2.535v-1.465h4c1.654 0 3-1.346 3-3v-16c0-1.654-1.346-3-3-3zm1 19c0 .551-.449 1-1 1h-6v3.465c0 .4-.499.666-.832.445l-5.865-3.91h-15.303c-.551 0-1-.449-1-1v-16c0-.551.449-1 1-1h28c.551 0 1 .449 1 1z" fill="#ffffff" data-original="#000000" style=""/><path d="m7 43h2v2h-2z" fill="#ffffff" data-original="#000000" style=""/><path d="m11 43h2v2h-2z" fill="#ffffff" data-original="#000000" style=""/><path d="m15 43h2v2h-2z" fill="#ffffff" data-original="#000000" style=""/><path d="m19 43h2v2h-2z" fill="#ffffff" data-original="#000000" style=""/><path d="m11 25c0 1.103-.897 2-2 2v2c1.103 0 2 .897 2 2 0 2.206 1.794 4 4 4v-2c-1.103 0-2-.897-2-2 0-1.2-.542-2.266-1.382-3 .84-.734 1.382-1.8 1.382-3 0-1.103.897-2 2-2v-2c-2.206 0-4 1.794-4 4z" fill="#ffffff" data-original="#000000" style=""/><path d="m33 25c0-2.206-1.794-4-4-4v2c1.103 0 2 .897 2 2 0 1.2.542 2.266 1.382 3-.84.734-1.382 1.8-1.382 3 0 1.103-.897 2-2 2v2c2.206 0 4-1.794 4-4 0-1.103.897-2 2-2v-2c-1.103 0-2-.897-2-2z" fill="#ffffff" data-original="#000000" style=""/><path d="m17 21h10v2h-10z" fill="#ffffff" data-original="#000000" style=""/><path d="m17 25h10v2h-10z" fill="#ffffff" data-original="#000000" style=""/><path d="m17 29h2v2h-2z" fill="#ffffff" data-original="#000000" style=""/><path d="m21 29h6v2h-6z" fill="#ffffff" data-original="#000000" style=""/><path d="m17 33h10v2h-10z" fill="#ffffff" data-original="#000000" style=""/><path d="m41 21h2v2h-2z" fill="#ffffff" data-original="#000000" style=""/><path d="m45 21h10v2h-10z" fill="#ffffff" data-original="#000000" style=""/><path d="m41 25h14v2h-14z" fill="#ffffff" data-original="#000000" style=""/><path d="m41 29h4v2h-4z" fill="#ffffff" data-original="#000000" style=""/><path d="m47 29h2v2h-2z" fill="#ffffff" data-original="#000000" style=""/><path d="m51 29h4v2h-4z" fill="#ffffff" data-original="#000000" style=""/><path d="m41 33h14v2h-14z" fill="#ffffff" data-original="#000000" style=""/><path d="m41 17h14v2h-14z" fill="#ffffff" data-original="#000000" style=""/></g></g></svg>
