<?xml version="1.0"?>
<svg xmlns="http://www.w3.org/2000/svg" xmlns:xlink="http://www.w3.org/1999/xlink" xmlns:svgjs="http://svgjs.com/svgjs" version="1.1" width="512" height="512" x="0" y="0" viewBox="0 0 512 512" style="enable-background:new 0 0 512 512" xml:space="preserve" class=""><g>
<g xmlns="http://www.w3.org/2000/svg">
	<g>
		<g>
			<path d="M213.333,213.331c0-2.263-0.899-4.433-2.5-6.033c-1.6-1.601-3.77-2.5-6.033-2.5s-4.433,0.899-6.033,2.5L156.1,249.965     c-1.601,1.6-2.5,3.77-2.5,6.033c0,2.263,0.899,4.434,2.5,6.033l42.667,42.667c3.332,3.332,8.735,3.332,12.067,0     c3.332-3.332,3.332-8.734,0-12.067L174.2,255.998l36.634-36.634C212.434,217.765,213.333,215.594,213.333,213.331z" fill="#ffffff" data-original="#000000" style=""/>
			<path d="M313.233,207.298c-3.341-3.281-8.701-3.256-12.012,0.054c-3.311,3.311-3.335,8.671-0.054,12.012l36.633,36.634     l-36.634,36.634c-2.178,2.151-3.037,5.304-2.251,8.262c0.786,2.958,3.097,5.269,6.055,6.055s6.111-0.073,8.262-2.251     l42.667-42.667c1.601-1.6,2.5-3.77,2.5-6.033c0-2.263-0.899-4.433-2.5-6.033L313.233,207.298z" fill="#ffffff" data-original="#000000" style=""/>
			<path d="M275.412,188.056c-4.531-1.275-9.242,1.345-10.55,5.867L230.729,313.39c-1.292,4.531,1.33,9.252,5.858,10.55     c0.765,0.214,1.556,0.323,2.35,0.325c3.809-0.003,7.154-2.529,8.2-6.192l34.133-119.467     C282.563,194.076,279.941,189.355,275.412,188.056z" fill="#ffffff" data-original="#000000" style=""/>
			<path d="M256,93.865c-89.544,0-162.133,72.59-162.133,162.133S166.456,418.131,256,418.131s162.133-72.59,162.133-162.133     C418.032,166.496,345.502,93.966,256,93.865z M256,401.065c-80.118,0-145.067-64.949-145.067-145.067     S175.882,110.931,256,110.931s145.067,64.949,145.067,145.067C400.977,336.079,336.081,400.975,256,401.065z" fill="#ffffff" data-original="#000000" style=""/>
			<path d="M510.583,228.957c-0.342-3.135-2.385-5.827-5.313-7l-51.938-20.792c-4.465-16-10.868-31.395-19.067-45.842l22.062-51.525     c1.242-2.897,0.783-6.243-1.192-8.7c-11.376-14.042-24.189-26.856-38.229-38.233c-2.459-1.977-5.809-2.436-8.708-1.192     l-51.529,22.059c-14.444-8.202-29.838-14.605-45.837-19.067l-20.8-51.942c-1.172-2.926-3.862-4.967-6.996-5.309     c-17.976-1.883-36.099-1.883-54.075,0c-3.133,0.341-5.823,2.383-6.996,5.308l-20.8,51.942c-16,4.462-31.393,10.865-45.837,19.067     L103.8,55.673c-2.9-1.246-6.25-0.787-8.708,1.192c-14.038,11.381-26.85,24.195-38.229,38.233c-1.975,2.457-2.433,5.803-1.192,8.7     l22.063,51.525c-8.199,14.447-14.602,29.842-19.067,45.842L6.729,221.956c-2.927,1.174-4.97,3.865-5.312,7     c-1.889,17.978-1.889,36.105,0,54.083c0.343,3.135,2.385,5.827,5.312,7l51.938,20.792c4.465,16,10.868,31.395,19.067,45.842     l-22.063,51.525c-1.242,2.897-0.783,6.243,1.192,8.7c11.376,14.042,24.189,26.856,38.229,38.233     c2.46,1.975,5.808,2.433,8.708,1.192l51.529-22.059c14.444,8.202,29.838,14.605,45.837,19.067l20.8,51.942     c1.172,2.926,3.862,4.967,6.996,5.308c17.976,1.889,36.1,1.889,54.075,0c3.133-0.341,5.823-2.382,6.996-5.308l20.8-51.942     c16-4.462,31.393-10.865,45.837-19.067l51.529,22.059c2.9,1.24,6.248,0.782,8.708-1.192     c14.038-11.381,26.85-24.195,38.229-38.233c1.975-2.457,2.433-5.803,1.192-8.7l-22.062-51.525     c8.199-14.447,14.602-29.842,19.066-45.842l51.938-20.792c2.927-1.173,4.97-3.864,5.313-7     C512.472,265.062,512.472,246.935,510.583,228.957z M494.108,276.123l-51.088,20.45c-2.53,1.014-4.423,3.176-5.096,5.817     c-4.439,17.344-11.352,33.959-20.525,49.333c-1.394,2.346-1.585,5.216-0.512,7.725l21.709,50.692     c-4.187,4.958-8.763,9.925-13.65,14.808c-4.846,4.85-9.813,9.425-14.804,13.642l-50.692-21.7     c-2.507-1.082-5.381-0.893-7.725,0.508c-15.374,9.174-31.989,16.087-49.333,20.525c-2.639,0.673-4.798,2.564-5.813,5.092     l-20.458,51.092c-13.391,1.1-26.85,1.1-40.242,0l-20.459-51.092c-1.014-2.527-3.174-4.419-5.812-5.092     c-17.344-4.438-33.959-11.351-49.333-20.525c-2.344-1.401-5.218-1.59-7.725-0.508l-50.692,21.7     c-4.992-4.217-9.958-8.792-14.808-13.642c-4.883-4.883-9.458-9.85-13.646-14.808l21.709-50.692     c1.072-2.509,0.882-5.379-0.513-7.725c-9.173-15.375-16.086-31.989-20.525-49.333c-0.673-2.641-2.566-4.802-5.096-5.817     l-51.088-20.45c-0.546-6.483-0.825-13.225-0.825-20.125c0-6.9,0.279-13.642,0.825-20.125l51.088-20.45     c2.53-1.014,4.423-3.176,5.096-5.817c4.439-17.344,11.352-33.959,20.525-49.333c1.394-2.345,1.584-5.216,0.513-7.725     l-21.709-50.692c4.187-4.958,8.763-9.925,13.65-14.808c4.846-4.85,9.813-9.425,14.804-13.642l50.692,21.7     c2.507,1.081,5.381,0.892,7.725-0.508c15.374-9.174,31.989-16.087,49.333-20.525c2.639-0.673,4.798-2.565,5.812-5.092     l20.458-51.092c13.391-1.1,26.85-1.1,40.242,0l20.459,51.091c1.014,2.527,3.174,4.419,5.813,5.092     c17.344,4.438,33.959,11.351,49.333,20.525c2.344,1.401,5.218,1.59,7.725,0.508l50.692-21.7     c4.992,4.217,9.958,8.792,14.808,13.642c4.883,4.883,9.458,9.85,13.646,14.808l-21.708,50.692     c-1.072,2.509-0.882,5.379,0.512,7.725c9.173,15.375,16.086,31.989,20.525,49.333c0.673,2.641,2.566,4.802,5.096,5.817     l51.088,20.45c0.546,6.483,0.825,13.225,0.825,20.125C494.933,262.898,494.654,269.64,494.108,276.123z" fill="#ffffff" data-original="#000000" style=""/>
		</g>
	</g>
</g>
<g xmlns="http://www.w3.org/2000/svg">
</g>
<g xmlns="http://www.w3.org/2000/svg">
</g>
<g xmlns="http://www.w3.org/2000/svg">
</g>
<g xmlns="http://www.w3.org/2000/svg">
</g>
<g xmlns="http://www.w3.org/2000/svg">
</g>
<g xmlns="http://www.w3.org/2000/svg">
</g>
<g xmlns="http://www.w3.org/2000/svg">
</g>
<g xmlns="http://www.w3.org/2000/svg">
</g>
<g xmlns="http://www.w3.org/2000/svg">
</g>
<g xmlns="http://www.w3.org/2000/svg">
</g>
<g xmlns="http://www.w3.org/2000/svg">
</g>
<g xmlns="http://www.w3.org/2000/svg">
</g>
<g xmlns="http://www.w3.org/2000/svg">
</g>
<g xmlns="http://www.w3.org/2000/svg">
</g>
<g xmlns="http://www.w3.org/2000/svg">
</g>
</g></svg>
