<?xml version="1.0"?>
<svg xmlns="http://www.w3.org/2000/svg" xmlns:xlink="http://www.w3.org/1999/xlink" xmlns:svgjs="http://svgjs.com/svgjs" version="1.1" width="512" height="512" x="0" y="0" viewBox="0 0 64 64" style="enable-background:new 0 0 512 512" xml:space="preserve" class=""><g><g xmlns="http://www.w3.org/2000/svg" id="Data_analysis-research-analysis-report-presentation" data-name="Data analysis-research-analysis-report-presentation"><path d="m34 14h10a1 1 0 0 0 1-1 11.013 11.013 0 0 0 -11-11 1 1 0 0 0 -1 1v10a1 1 0 0 0 1 1zm1-9.945a9.02 9.02 0 0 1 7.945 7.945h-7.945z" fill="#ffffff" data-original="#000000" style=""/><path d="m49.414 4h6.586v-2h-7a1 1 0 0 0 -.707.293l-3 3 1.414 1.414z" fill="#ffffff" data-original="#000000" style=""/><path d="m58 2h4v2h-4z" fill="#ffffff" data-original="#000000" style=""/><path d="m17.293 6.707 1.414-1.414-3-3a1 1 0 0 0 -.707-.293h-7v2h6.586z" fill="#ffffff" data-original="#000000" style=""/><path d="m2 2h4v2h-4z" fill="#ffffff" data-original="#000000" style=""/><path d="m50 8h8v2h-8z" fill="#ffffff" data-original="#000000" style=""/><path d="m60 8h2v2h-2z" fill="#ffffff" data-original="#000000" style=""/><path d="m2 8h12v2h-12z" fill="#ffffff" data-original="#000000" style=""/><path d="m25.586 36h-6.586v2h7a1 1 0 0 0 .707-.293l3-3-1.414-1.414z" fill="#ffffff" data-original="#000000" style=""/><path d="m13 36h4v2h-4z" fill="#ffffff" data-original="#000000" style=""/><path d="m13 30h12v2h-12z" fill="#ffffff" data-original="#000000" style=""/><path d="m62 29a12.987 12.987 0 0 0 -21.18-10.09 10.942 10.942 0 0 0 .18-1.91 1 1 0 0 0 -1-1h-9v-9a1 1 0 0 0 -1-1 11.011 11.011 0 0 0 -10.57 8h-5.43a5 5 0 0 0 -5 5v26a5 5 0 0 0 5 5h14v6h-3a3.009 3.009 0 0 0 -3 3v2a1 1 0 0 0 1 1h18a1 1 0 0 0 1-1v-2a3.009 3.009 0 0 0 -3-3h-3v-6h8v7a5 5 0 0 0 10 0v-12a1 1 0 0 0 -1-1h-1v-2.36a13.025 13.025 0 0 0 10-12.64zm-33-20.94v8.94a1 1 0 0 0 1 1h8.94a9 9 0 1 1 -9.94-9.94zm10 49.94a1 1 0 0 1 1 1v1h-16v-1a1 1 0 0 1 1-1zm-9-2v-6h4v6zm15-12a1 1 0 0 0 -1 1v3h-30a3.009 3.009 0 0 1 -3-3v-1h31v-2h-31v-23a3.009 3.009 0 0 1 3-3h5.05c-.03.33-.05.66-.05 1a10.989 10.989 0 0 0 17.38 8.95 12.8 12.8 0 0 0 -.38 3.05 13.025 13.025 0 0 0 10 12.64v2.36zm7 13a3 3 0 0 1 -6 0v-11h6zm-4-13v-2.05c.33.02.66.05 1 .05s.67-.03 1-.05v2.05zm1-4a11 11 0 1 1 11-11 11.007 11.007 0 0 1 -11 11z" fill="#ffffff" data-original="#000000" style=""/><path d="m49 20a9 9 0 1 0 9 9 9.011 9.011 0 0 0 -9-9zm0 16a7 7 0 1 1 7-7 7.008 7.008 0 0 1 -7 7z" fill="#ffffff" data-original="#000000" style=""/><path d="m44 29h2a3 3 0 0 1 3-3v-2a5.006 5.006 0 0 0 -5 5z" fill="#ffffff" data-original="#000000" style=""/><path d="m48 48h2v2h-2z" fill="#ffffff" data-original="#000000" style=""/><path d="m48 52h2v6h-2z" fill="#ffffff" data-original="#000000" style=""/></g></g></svg>
