<?xml version="1.0"?>
<svg xmlns="http://www.w3.org/2000/svg" xmlns:xlink="http://www.w3.org/1999/xlink" xmlns:svgjs="http://svgjs.com/svgjs" version="1.1" width="512" height="512" x="0" y="0" viewBox="0 0 58 60" style="enable-background:new 0 0 512 512" xml:space="preserve" class=""><g><g xmlns="http://www.w3.org/2000/svg" id="Page-1" fill="none" fill-rule="evenodd"><g id="013---Scam-Email" fill="rgb(0,0,0)" fill-rule="nonzero"><path id="Shape" d="m4 60h28c2.209139 0 4-1.790861 4-4v-5h18c1.9423181-.0057198 3.5998129-1.4059444 3.93-3.32.0423389-.1639778.0423389-.3360222 0-.5 0-.06 0-.12 0-.18v-26c.0005011-.3326261-.1644212-.6437296-.44-.83l-6.49-4.47v-2.7c0-1.6568542-1.3431458-3-3-3h-5.35l-5.4-3.68c-.3836484-.25302306-.8057962-.44214528-1.25-.56v-1.76c0-2.209139-1.790861-4-4-4h-28c-2.209139 0-4 1.790861-4 4v52c0 2.209139 1.790861 4 4 4zm50-11h-38c-.8001597.001055-1.5239373-.4749074-1.84-1.21l19.71-13.44c.681137-.4664243 1.578863-.4664243 2.26 0l19.71 13.44c-.3160627.7350926-1.0398403 1.211055-1.84 1.21zm-35-25.12-4.22-2.88 4.22-2.88zm-5-1 12.72 8.68 3.78 2.58-16.5 11.34zm12 2.12c0-4.41 4-8 9-8s9 3.59 9 8c-.0130812 1.8590868-.7273437 3.6447432-2 5l-4.33 3-.42-.28c-1.3524668-.9408502-3.1475332-.9408502-4.5 0l-.42.28-4.33-3c-1.2726563-1.3552568-1.9869188-3.1409132-2-5zm30-2.11v22.59l-16.56-11.29 3.77-2.57zm-.78-1.89-4.22 2.88v-5.76zm-6.22-8v12.25l-3.37 2.29c.2431187-.8248458.3676992-1.6800744.37-2.54 0-5.51-4.93-10-11-10s-11 4.49-11 10c.0023008.8599256.1268813 1.7151542.37 2.54l-3.37-2.29v-12.25c0-.5522847.4477153-1 1-1h26c.5522847 0 1 .4477153 1 1zm-9.9-3h-8.2l3-2c.681137-.46642426 1.578863-.46642426 2.26 0zm-11.87-8-1.23 2c-.3514817.60899457-.9969455.9886792-1.7 1h-12.6c-.7030545-.0113208-1.3485183-.39100543-1.7-1l-1.23-2zm-25.23 2c0-1.1045695.8954305-2 2-2h2.43l1.84 3.06c.72339705 1.20405616 2.0253455 1.94043515 3.43 1.94h12.6c1.4046545.00043515 2.706603-.73594384 3.43-1.94l1.84-3.06h2.43c1.1045695 0 2 .8954305 2 2v1.77c-.4451137.11032443-.8679414.29636863-1.25.55l-5.4 3.68h-5.35c-1.6568542 0-3 1.3431458-3 3v2.7l-6.56 4.47c-.2755788.1862704-.4405011.4973739-.44.83v26 .18c-.026162.1682057-.008952.3403057.05.5.3314751 1.9214964 2.0001261 3.3240081 3.95 3.32h18v5c0 1.1045695-.8954305 2-2 2h-28c-1.1045695 0-2-.8954305-2-2z" fill="#ffffff" data-original="#000000" style="" class=""/><path id="Shape" d="m10 56h16c.5522847 0 1-.4477153 1-1s-.4477153-1-1-1h-16c-.55228475 0-1 .4477153-1 1s.44771525 1 1 1z" fill="#ffffff" data-original="#000000" style="" class=""/><path id="Shape" d="m33 25c.5522847 0 1-.4477153 1-1s-.4477153-1-1-1h-3c-.5522847 0-1 .4477153-1 1s.4477153 1 1 1z" fill="#ffffff" data-original="#000000" style="" class=""/><path id="Shape" d="m37 25h3c.5522847 0 1-.4477153 1-1s-.4477153-1-1-1h-3c-.5522847 0-1 .4477153-1 1s.4477153 1 1 1z" fill="#ffffff" data-original="#000000" style="" class=""/><path id="Shape" d="m34 29c0 .5522847.4477153 1 1 1s1-.4477153 1-1v-2c0-.5522847-.4477153-1-1-1s-1 .4477153-1 1z" fill="#ffffff" data-original="#000000" style="" class=""/><path id="Shape" d="m5 14c.55228475 0 1-.4477153 1-1v-3c0-.55228475-.44771525-1-1-1s-1 .44771525-1 1v3c0 .5522847.44771525 1 1 1z" fill="#ffffff" data-original="#000000" style="" class=""/><path id="Shape" d="m5 35c.55228475 0 1-.4477153 1-1v-17c0-.5522847-.44771525-1-1-1s-1 .4477153-1 1v17c0 .5522847.44771525 1 1 1z" fill="#ffffff" data-original="#000000" style="" class=""/></g></g></g></svg>
