<?xml version="1.0"?>
<svg xmlns="http://www.w3.org/2000/svg" xmlns:xlink="http://www.w3.org/1999/xlink" xmlns:svgjs="http://svgjs.com/svgjs" version="1.1" width="512" height="512" x="0" y="0" viewBox="0 0 480 480.09766" style="enable-background:new 0 0 512 512" xml:space="preserve"><g><path xmlns="http://www.w3.org/2000/svg" d="m176.050781 200.097656v32c-17.671875 0-32 14.328125-32 32v80c0 17.671875 14.328125 32 32 32h128c17.671875 0 32-14.328125 32-32v-80c0-17.671875-14.328125-32-32-32h-8v16h8c8.835938 0 16 7.164063 16 16v80c0 8.835938-7.164062 16-16 16h-128c-8.835937 0-16-7.164062-16-16v-80c0-8.835937 7.164063-16 16-16h96v-16h-48v-24h32v-16h-32c-8.835937 0-16 7.164063-16 16v24h-16v-32c0-13.253906 10.746094-24 24-24h48c13.253907 0 24 10.746094 24 24h16c-.027343-22.082031-17.917969-39.972656-40-40h-48c-22.082031.027344-39.972656 17.917969-40 40zm0 0" fill="#ffffff" data-original="#000000" style=""/><path xmlns="http://www.w3.org/2000/svg" d="m264.050781 288.097656v-16c0-4.417968-3.582031-8-8-8h-8v-8h-16v8h-8c-4.417969 0-8 3.582032-8 8v32c0 4.417969 3.582031 8 8 8h24v16h-16v-8h-16v16c0 4.417969 3.582031 8 8 8h32c4.417969 0 8-3.582031 8-8v-32c0-4.417968-3.582031-8-8-8h-24v-16h16v8zm0 0" fill="#ffffff" data-original="#000000" style=""/><path xmlns="http://www.w3.org/2000/svg" d="m320.050781 208.097656h72v192h-304v-192h72v-16h-80c-4.417969 0-8 3.582032-8 8v208c0 4.417969 3.582031 8 8 8h320c4.417969 0 8-3.582031 8-8v-208c0-4.417968-3.582031-8-8-8h-80zm0 0" fill="#ffffff" data-original="#000000" style=""/><path xmlns="http://www.w3.org/2000/svg" d="m472.050781 432.097656h-464c-4.417969 0-7.9999998 3.582032-7.9999998 8 .0273438 22.082032 17.9179688 39.972656 39.9999998 40h400c22.082031-.027344 39.972657-17.917968 40-40 0-4.417968-3.582031-8-8-8zm-32 32h-400c-10.167969-.011718-19.230469-6.417968-22.632812-16h445.265625c-3.402344 9.582032-12.464844 15.988282-22.632813 16zm0 0" fill="#ffffff" data-original="#000000" style=""/><path xmlns="http://www.w3.org/2000/svg" d="m40.050781 168.097656v248h16v-240h104v-16h-112c-4.417969 0-8 3.582032-8 8zm0 0" fill="#ffffff" data-original="#000000" style=""/><path xmlns="http://www.w3.org/2000/svg" d="m320.050781 176.097656h104v240h16v-248c0-4.417968-3.582031-8-8-8h-112zm0 0" fill="#ffffff" data-original="#000000" style=""/><path xmlns="http://www.w3.org/2000/svg" d="m72.050781 48.097656c.050781-12.21875-9.085937-22.523437-21.222656-23.9375-12.132813-1.414062-23.394531 6.511719-26.15625 18.414063-2.761719 11.902343 3.859375 23.980469 15.378906 28.050781v33.472656c0 4.417969 3.582031 8 8 8h40v32h16v-40c0-4.417968-3.582031-8-8-8h-40v-25.472656c9.554688-3.378906 15.957031-12.394531 16-22.527344zm-24-8c4.417969 0 8 3.582032 8 8 0 4.417969-3.582031 8-8 8s-8-3.582031-8-8c0-4.417968 3.582031-8 8-8zm0 0" fill="#ffffff" data-original="#000000" style=""/><path xmlns="http://www.w3.org/2000/svg" d="m456.050781 48.097656c-10.316406-.035156-19.496093 6.550782-22.765625 16.335938-3.273437 9.785156.101563 20.566406 8.367188 26.742187l-12.914063 12.921875h-60.6875c-4.417969 0-8 3.582032-8 8v32h16v-24h56c2.121094 0 4.15625-.84375 5.65625-2.34375l22.03125-22.03125c12.378907-1.910156 21.195313-13.035156 20.230469-25.523437-.96875-12.488281-11.394531-22.121094-23.917969-22.101563zm0 32c-4.417969 0-8-3.582031-8-8 0-4.417968 3.582031-8 8-8s8 3.582032 8 8c0 4.417969-3.582031 8-8 8zm0 0" fill="#ffffff" data-original="#000000" style=""/><path xmlns="http://www.w3.org/2000/svg" d="m324.050781 89.152344c-2.480469 1.433594-4.003906 4.082031-4 6.945312v48h16v-43.359375l52-29.695312c2.480469-1.433594 4.003907-4.082031 4-6.945313v-17.472656c11.019531-3.894531 17.632813-15.164062 15.65625-26.683594-1.976562-11.523437-11.96875-19.941406-23.65625-19.941406s-21.679687 8.417969-23.65625 19.941406c-1.976562 11.519532 4.636719 22.789063 15.65625 26.683594v12.800781zm60-73.054688c4.417969 0 8 3.582032 8 8 0 4.417969-3.582031 8-8 8s-8-3.582031-8-8c0-4.417968 3.582031-8 8-8zm0 0" fill="#ffffff" data-original="#000000" style=""/><path xmlns="http://www.w3.org/2000/svg" d="m104.050781.0976562v55.9999998c0 2.429688 1.101563 4.730469 3 6.246094l37 29.59375v52.160156h16v-56c0-2.429687-1.101562-4.730468-3-6.246094l-37-29.59375v-52.1601558zm0 0" fill="#ffffff" data-original="#000000" style=""/><path xmlns="http://www.w3.org/2000/svg" d="m144.050781 16.097656v24c0 2.429688 1.101563 4.730469 3 6.246094l37 29.59375v44.160156h16v-48c0-2.429687-1.101562-4.730468-3-6.246094l-37-29.59375v-20.160156zm0 0" fill="#ffffff" data-original="#000000" style=""/><path xmlns="http://www.w3.org/2000/svg" d="m297.371094 31.984375c3.855468-.644531 6.679687-3.980469 6.679687-7.886719v-23.9999998h-16v17.2226558l-41.320312 6.890626c-3.855469.644531-6.679688 3.980468-6.679688 7.886718v17.472656c-9.585937 3.339844-16.007812 12.378907-16.007812 22.527344 0 10.148438 6.421875 19.1875 16.007812 22.527344v17.472656c0 3.667969 2.496094 6.867188 6.054688 7.761719l25.945312 6.484375v17.753906h16v-24c0-3.667968-2.496093-6.867187-6.054687-7.761718l-25.945313-6.484376v-11.203124c9.585938-3.339844 16.007813-12.375 16.007813-22.527344 0-10.148438-6.421875-19.1875-16.007813-22.527344v-10.71875zm-49.320313 48.113281c-4.417969 0-8-3.582031-8-8 0-4.417968 3.582031-8 8-8s8 3.582032 8 8c0 4.417969-3.582031 8-8 8zm0 0" fill="#ffffff" data-original="#000000" style=""/></g></svg>
