<?xml version="1.0"?>
<svg xmlns="http://www.w3.org/2000/svg" xmlns:xlink="http://www.w3.org/1999/xlink" xmlns:svgjs="http://svgjs.com/svgjs" version="1.1" width="512" height="512" x="0" y="0" viewBox="0 0 60 60" style="enable-background:new 0 0 512 512" xml:space="preserve"><g><g xmlns="http://www.w3.org/2000/svg" id="Page-1" fill="none" fill-rule="evenodd"><g id="010---Scam-Email" fill="rgb(0,0,0)" fill-rule="nonzero"><path id="Shape" d="m59.58 22.19-8.58-6.13v-13.06c0-1.65685425-1.3431458-3-3-3h-36c-1.6568542 0-3 1.34314575-3 3v13.06l-8.58 6.13c-.26219557.1866758-.41851169.4881426-.42.81v33c0 2.209139 1.790861 4 4 4h52c2.209139 0 4-1.790861 4-4v-33c-.0014883-.3218574-.1578044-.6233242-.42-.81zm-1.58 33.81c-.0018648.305523-.0737026.6065575-.21.88l-21.94-15.88 22.15-16zm-56 0v-31l22.15 16-21.94 15.88c-.13629742-.2734425-.2081352-.574477-.21-.88zm26.83-15.91c.6986133-.5039112 1.6413867-.5039112 2.34 0l24.75 17.91h-51.84zm28.46-17.09-6.29 4.56v-9zm-45.29-21h36c.5522847 0 1 .44771525 1 1v26l-14.86 10.76-1.79-1.29c-1.4014676-1.0174711-3.2985324-1.0174711-4.7 0l-1.79 1.29-14.86-10.76v-26c0-.55228475.4477153-1 1-1zm-3 25.56-6.29-4.56 6.29-4.48z" fill="#fff8f8" data-original="#000000" style=""/><path id="Shape" d="m5 31c-.55228475 0-1 .4477153-1 1v1c0 .5522847.44771525 1 1 1s1-.4477153 1-1v-1c0-.5522847-.44771525-1-1-1z" fill="#fff8f8" data-original="#000000" style=""/><path id="Shape" d="m5 36c-.55228475 0-1 .4477153-1 1v14c0 .5522847.44771525 1 1 1s1-.4477153 1-1v-14c0-.5522847-.44771525-1-1-1z" fill="#fff8f8" data-original="#000000" style=""/><path id="Shape" d="m23 24.72v3.28c0 1.6568542 1.3431458 3 3 3h8c1.6568542 0 3-1.3431458 3-3v-3.28c2.4716682-1.802408 3.9529628-4.6613065 4-7.72 0-5.51-4.93-10-11-10s-11 4.49-11 10c.0470372 3.0586935 1.5283318 5.917592 4 7.72zm7-15.72c5 0 9 3.59 9 8-.0376965 2.5875005-1.3759327 4.9820411-3.56 6.37-.2755788.1862704-.4405011.4973739-.44.83v3.8c0 .5522847-.4477153 1-1 1h-1v-2c0-.5522847-.4477153-1-1-1s-1 .4477153-1 1v2h-2v-2c0-.5522847-.4477153-1-1-1s-1 .4477153-1 1v2h-1c-.5522847 0-1-.4477153-1-1v-3.8c.0005011-.3326261-.1644212-.6437296-.44-.83-2.1840673-1.3879589-3.5223035-3.7824995-3.56-6.37 0-4.41 4-8 9-8z" fill="#fff8f8" data-original="#000000" style=""/><path id="Shape" d="m25 17h3c.5522847 0 1-.4477153 1-1s-.4477153-1-1-1h-3c-.5522847 0-1 .4477153-1 1s.4477153 1 1 1z" fill="#fff8f8" data-original="#000000" style=""/><path id="Shape" d="m32 17h3c.5522847 0 1-.4477153 1-1s-.4477153-1-1-1h-3c-.5522847 0-1 .4477153-1 1s.4477153 1 1 1z" fill="#fff8f8" data-original="#000000" style=""/><path id="Shape" d="m29 21c0 .5522847.4477153 1 1 1s1-.4477153 1-1v-2c0-.5522847-.4477153-1-1-1s-1 .4477153-1 1z" fill="#fff8f8" data-original="#000000" style=""/></g></g></g></svg>
